<?xml version="1.0" encoding="us-ascii" standalone="no"?><svg xmlns="http://www.w3.org/2000/svg" xmlns:xlink="http://www.w3.org/1999/xlink" contentStyleType="text/css" height="528px" preserveAspectRatio="none" style="width:748px;height:528px;background:#FFFFFF;" version="1.1" viewBox="0 0 748 528" width="748px" zoomAndPan="magnify"><defs/><g><line style="stroke:#181818;stroke-width:0.5;stroke-dasharray:5.0,5.0;" x1="61" x2="61" y1="81.2969" y2="447.7578"/><line style="stroke:#181818;stroke-width:0.5;stroke-dasharray:5.0,5.0;" x1="244" x2="244" y1="81.2969" y2="447.7578"/><line style="stroke:#181818;stroke-width:0.5;stroke-dasharray:5.0,5.0;" x1="410" x2="410" y1="81.2969" y2="447.7578"/><line style="stroke:#181818;stroke-width:0.5;stroke-dasharray:5.0,5.0;" x1="604.5" x2="604.5" y1="81.2969" y2="447.7578"/><line style="stroke:#181818;stroke-width:0.5;stroke-dasharray:5.0,5.0;" x1="712.5" x2="712.5" y1="81.2969" y2="447.7578"/><text fill="#000000" font-family="sans-serif" font-size="14" lengthAdjust="spacing" textLength="106" x="5" y="77.9951">Admin G&#233;n&#233;ral</text><ellipse cx="61" cy="13.5" fill="#E2E2F0" rx="8" ry="8" style="stroke:#181818;stroke-width:0.5;"/><path d="M61,21.5 L61,48.5 M48,29.5 L74,29.5 M61,48.5 L48,63.5 M61,48.5 L74,63.5 " fill="none" style="stroke:#181818;stroke-width:0.5;"/><text fill="#000000" font-family="sans-serif" font-size="14" lengthAdjust="spacing" textLength="106" x="5" y="459.7529">Admin G&#233;n&#233;ral</text><ellipse cx="61" cy="471.5547" fill="#E2E2F0" rx="8" ry="8" style="stroke:#181818;stroke-width:0.5;"/><path d="M61,479.5547 L61,506.5547 M48,487.5547 L74,487.5547 M61,506.5547 L48,521.5547 M61,506.5547 L74,521.5547 " fill="none" style="stroke:#181818;stroke-width:0.5;"/><text fill="#000000" font-family="sans-serif" font-size="14" lengthAdjust="spacing" textLength="100" x="191" y="77.9951">Admin Centre</text><ellipse cx="244" cy="13.5" fill="#E2E2F0" rx="8" ry="8" style="stroke:#181818;stroke-width:0.5;"/><path d="M244,21.5 L244,48.5 M231,29.5 L257,29.5 M244,48.5 L231,63.5 M244,48.5 L257,63.5 " fill="none" style="stroke:#181818;stroke-width:0.5;"/><text fill="#000000" font-family="sans-serif" font-size="14" lengthAdjust="spacing" textLength="100" x="191" y="459.7529">Admin Centre</text><ellipse cx="244" cy="471.5547" fill="#E2E2F0" rx="8" ry="8" style="stroke:#181818;stroke-width:0.5;"/><path d="M244,479.5547 L244,506.5547 M231,487.5547 L257,487.5547 M244,506.5547 L231,521.5547 M244,506.5547 L257,521.5547 " fill="none" style="stroke:#181818;stroke-width:0.5;"/><text fill="#000000" font-family="sans-serif" font-size="14" lengthAdjust="spacing" textLength="140" x="337" y="77.9951">Responsable Rayon</text><ellipse cx="410" cy="13.5" fill="#E2E2F0" rx="8" ry="8" style="stroke:#181818;stroke-width:0.5;"/><path d="M410,21.5 L410,48.5 M397,29.5 L423,29.5 M410,48.5 L397,63.5 M410,48.5 L423,63.5 " fill="none" style="stroke:#181818;stroke-width:0.5;"/><text fill="#000000" font-family="sans-serif" font-size="14" lengthAdjust="spacing" textLength="140" x="337" y="459.7529">Responsable Rayon</text><ellipse cx="410" cy="471.5547" fill="#E2E2F0" rx="8" ry="8" style="stroke:#181818;stroke-width:0.5;"/><path d="M410,479.5547 L410,506.5547 M397,487.5547 L423,487.5547 M410,506.5547 L397,521.5547 M410,506.5547 L423,521.5547 " fill="none" style="stroke:#181818;stroke-width:0.5;"/><text fill="#000000" font-family="sans-serif" font-size="14" lengthAdjust="spacing" textLength="121" x="541.5" y="77.9951">Base de donn&#233;es</text><path d="M587,29 C587,19 605,19 605,19 C605,19 623,19 623,29 L623,55 C623,65 605,65 605,65 C605,65 587,65 587,55 L587,29 " fill="#E2E2F0" style="stroke:#181818;stroke-width:1.5;"/><path d="M587,29 C587,39 605,39 605,39 C605,39 623,39 623,29 " fill="none" style="stroke:#181818;stroke-width:1.5;"/><text fill="#000000" font-family="sans-serif" font-size="14" lengthAdjust="spacing" textLength="121" x="541.5" y="459.7529">Base de donn&#233;es</text><path d="M587,473.0547 C587,463.0547 605,463.0547 605,463.0547 C605,463.0547 623,463.0547 623,473.0547 L623,499.0547 C623,509.0547 605,509.0547 605,509.0547 C605,509.0547 587,509.0547 587,499.0547 L587,473.0547 " fill="#E2E2F0" style="stroke:#181818;stroke-width:1.5;"/><path d="M587,473.0547 C587,483.0547 605,483.0547 605,483.0547 C605,483.0547 623,483.0547 623,473.0547 " fill="none" style="stroke:#181818;stroke-width:1.5;"/><text fill="#000000" font-family="sans-serif" font-size="14" lengthAdjust="spacing" textLength="63" x="678.5" y="77.9951">Syst&#232;me</text><path d="M692.5,37 L692.5,61 M692.5,49 L709.5,49 " fill="none" style="stroke:#181818;stroke-width:0.5;"/><ellipse cx="721.5" cy="49" fill="#E2E2F0" rx="12" ry="12" style="stroke:#181818;stroke-width:0.5;"/><text fill="#000000" font-family="sans-serif" font-size="14" lengthAdjust="spacing" textLength="63" x="678.5" y="459.7529">Syst&#232;me</text><path d="M692.5,467.0547 L692.5,491.0547 M692.5,479.0547 L709.5,479.0547 " fill="none" style="stroke:#181818;stroke-width:0.5;"/><ellipse cx="721.5" cy="479.0547" fill="#E2E2F0" rx="12" ry="12" style="stroke:#181818;stroke-width:0.5;"/><polygon fill="#181818" points="701,108.4297,711,112.4297,701,116.4297,705,112.4297" style="stroke:#181818;stroke-width:1.0;"/><line style="stroke:#181818;stroke-width:1.0;" x1="61" x2="707" y1="112.4297" y2="112.4297"/><text fill="#000000" font-family="sans-serif" font-size="13" lengthAdjust="spacing" textLength="101" x="68" y="107.3638">Authentification</text><polygon fill="#181818" points="232,137.5625,242,141.5625,232,145.5625,236,141.5625" style="stroke:#181818;stroke-width:1.0;"/><line style="stroke:#181818;stroke-width:1.0;" x1="61" x2="238" y1="141.5625" y2="141.5625"/><text fill="#000000" font-family="sans-serif" font-size="13" lengthAdjust="spacing" textLength="146" x="68" y="136.4966">Cr&#233;ation Admin Centre</text><line style="stroke:#181818;stroke-width:1.0;" x1="244" x2="286" y1="170.6953" y2="170.6953"/><line style="stroke:#181818;stroke-width:1.0;" x1="286" x2="286" y1="170.6953" y2="183.6953"/><line style="stroke:#181818;stroke-width:1.0;" x1="245" x2="286" y1="183.6953" y2="183.6953"/><polygon fill="#181818" points="255,179.6953,245,183.6953,255,187.6953,251,183.6953" style="stroke:#181818;stroke-width:1.0;"/><text fill="#000000" font-family="sans-serif" font-size="13" lengthAdjust="spacing" textLength="124" x="251" y="165.6294">Cr&#233;ation Promotion</text><polygon fill="#181818" points="701,208.8281,711,212.8281,701,216.8281,705,212.8281" style="stroke:#181818;stroke-width:1.0;"/><line style="stroke:#181818;stroke-width:1.0;" x1="244" x2="707" y1="212.8281" y2="212.8281"/><text fill="#000000" font-family="sans-serif" font-size="13" lengthAdjust="spacing" textLength="169" x="251" y="207.7622">Enregistrement Promotion</text><polygon fill="#181818" points="398,237.9609,408,241.9609,398,245.9609,402,241.9609" style="stroke:#181818;stroke-width:1.0;"/><line style="stroke:#181818;stroke-width:1.0;" x1="244" x2="404" y1="241.9609" y2="241.9609"/><text fill="#000000" font-family="sans-serif" font-size="13" lengthAdjust="spacing" textLength="142" x="251" y="236.895">Notification Promotion</text><polygon fill="#181818" points="701,267.0938,711,271.0938,701,275.0938,705,271.0938" style="stroke:#181818;stroke-width:1.0;"/><line style="stroke:#181818;stroke-width:1.0;" x1="410" x2="707" y1="271.0938" y2="271.0938"/><text fill="#000000" font-family="sans-serif" font-size="13" lengthAdjust="spacing" textLength="101" x="417" y="266.0278">Authentification</text><polygon fill="#181818" points="701,296.2266,711,300.2266,701,304.2266,705,300.2266" style="stroke:#181818;stroke-width:1.0;"/><line style="stroke:#181818;stroke-width:1.0;" x1="410" x2="707" y1="300.2266" y2="300.2266"/><text fill="#000000" font-family="sans-serif" font-size="13" lengthAdjust="spacing" textLength="216" x="417" y="295.1606">Consultation Promotions (8h-12h)</text><line style="stroke:#181818;stroke-width:1.0;" x1="410" x2="452" y1="329.3594" y2="329.3594"/><line style="stroke:#181818;stroke-width:1.0;" x1="452" x2="452" y1="329.3594" y2="342.3594"/><line style="stroke:#181818;stroke-width:1.0;" x1="411" x2="452" y1="342.3594" y2="342.3594"/><polygon fill="#181818" points="421,338.3594,411,342.3594,421,346.3594,417,342.3594" style="stroke:#181818;stroke-width:1.0;"/><text fill="#000000" font-family="sans-serif" font-size="13" lengthAdjust="spacing" textLength="181" x="417" y="324.2935">Accepter/Refuser Promotion</text><polygon fill="#181818" points="701,367.4922,711,371.4922,701,375.4922,705,371.4922" style="stroke:#181818;stroke-width:1.0;"/><line style="stroke:#181818;stroke-width:1.0;" x1="410" x2="707" y1="371.4922" y2="371.4922"/><text fill="#000000" font-family="sans-serif" font-size="13" lengthAdjust="spacing" textLength="157" x="417" y="366.4263">Enregistrement D&#233;cision</text><polygon fill="#181818" points="255,396.625,245,400.625,255,404.625,251,400.625" style="stroke:#181818;stroke-width:1.0;"/><line style="stroke:#181818;stroke-width:1.0;" x1="249" x2="712" y1="400.625" y2="400.625"/><text fill="#000000" font-family="sans-serif" font-size="13" lengthAdjust="spacing" textLength="166" x="261" y="395.5591">Liste Promotions (8h-12h)</text><polygon fill="#181818" points="72,425.7578,62,429.7578,72,433.7578,68,429.7578" style="stroke:#181818;stroke-width:1.0;"/><line style="stroke:#181818;stroke-width:1.0;" x1="66" x2="243" y1="429.7578" y2="429.7578"/><text fill="#000000" font-family="sans-serif" font-size="13" lengthAdjust="spacing" textLength="159" x="78" y="424.6919">Consultation Statistiques</text><!--SRC=[ZP71QeGm48RlUOh1KtjOIdig7WhMBNiffRXFCEfiDw39DXCFlb5z3b-iKLSCMIk5a91_lidyCy72QWDHKjPImQ7lLDyPh2901Xoq0oboWa2VIqbPGmiqtMSc8xvenPXN11csMesWMTHH52LQp949ejTXBztIofKd7lavB7BTg19D2z6nPTl_r5DXTXUgXV1TmkxbgiUGDFRiRCcJBD1ALoy4FUSnfARlHWpy3eN7RAHy6bthfSR2prxUbA4loKwjNUnlFfnH31zwwS3B2y7DnhVWr0MQoWRlCzmzdtUFJ-VxrUHRcqbHqCMIUSZer32PVreDvhBlkqBoa3G1DoD_ToojsbpxgEjV1qqUXvEj_6w8Vm40]--></g></svg>